<mxfile host="app.diagrams.net" modified="2024-07-15T08:14:45.818Z" agent="Mozilla/5.0 (Windows NT 10.0; Win64; x64) AppleWebKit/537.36 (KHTML, like Gecko) Chrome/126.0.0.0 Safari/537.36 Edg/126.0.0.0" version="24.6.5" etag="IiT2jn6fApHWERNZCCIT" type="github">
  <diagram name="Page-1" id="0W6Mykj8GCAi7By-BJVz">
    <mxGraphModel>
      <root>
        <mxCell id="0" />
        <mxCell id="1" parent="0" />
      </root>
    </mxGraphModel>
  </diagram>
</mxfile>
